<svg xmlns="http://www.w3.org/2000/svg" xmlns:xlink="http://www.w3.org/1999/xlink" viewBox="0 0 414.39 292.45"><defs><style>.cls-1{fill:url(#Degradado_sin_nombre_5);}.cls-2{fill:url(#Degradado_sin_nombre_10);}.cls-3{fill:url(#Degradado_sin_nombre_7);}.cls-4{fill:url(#Degradado_sin_nombre_84);}.cls-5{fill:#b7e2fa;}</style><linearGradient id="Degradado_sin_nombre_5" x1="118.65" y1="513.55" x2="221.26" y2="345.16" gradientTransform="matrix(1, -0.06, -0.06, -1, -52.1, 537.46)" gradientUnits="userSpaceOnUse"><stop offset="0.08" stop-color="#36a9e1"/><stop offset="0.27" stop-color="#3387be"/><stop offset="0.58" stop-color="#2e548a"/><stop offset="0.82" stop-color="#2b356a"/><stop offset="0.95" stop-color="#2a295e"/></linearGradient><linearGradient id="Degradado_sin_nombre_10" x1="703.84" y1="-127.12" x2="811.66" y2="-38.84" gradientTransform="translate(412.94 -583.01) rotate(101.35)" gradientUnits="userSpaceOnUse"><stop offset="0.02" stop-color="#36a9e1"/><stop offset="0.15" stop-color="#3386bd"/><stop offset="0.31" stop-color="#30659b"/><stop offset="0.46" stop-color="#2d4a80"/><stop offset="0.62" stop-color="#2b386d"/><stop offset="0.78" stop-color="#2a2d62"/><stop offset="0.95" stop-color="#2a295e"/></linearGradient><linearGradient id="Degradado_sin_nombre_7" x1="171.77" y1="270.69" x2="239.3" y2="159.88" gradientUnits="userSpaceOnUse"><stop offset="0.05" stop-color="#2a295e"/><stop offset="0.18" stop-color="#2b356a"/><stop offset="0.42" stop-color="#2e548a"/><stop offset="0.73" stop-color="#3387be"/><stop offset="0.92" stop-color="#36a9e1"/></linearGradient><linearGradient id="Degradado_sin_nombre_84" x1="154.37" y1="164.03" x2="159.32" y2="164.03" gradientUnits="userSpaceOnUse"><stop offset="0.06" stop-color="#5076ba"/><stop offset="0.21" stop-color="#5c82c1"/><stop offset="0.48" stop-color="#7aa2d4"/><stop offset="0.84" stop-color="#acd6f3"/><stop offset="0.92" stop-color="#b7e2fa"/></linearGradient></defs><g id="Capa_2" data-name="Capa 2"><g id="Capa_1-2" data-name="Capa 1"><path class="cls-1" d="M157.63,192.84l2.76-108.69,0-.67a80,80,0,0,0-24.7-61.31C107-5.42,61.46-7.52,30.33,17.33a80.25,80.25,0,0,0-9.12,117.19,1.07,1.07,0,0,1,.14.16,67.33,67.33,0,0,0,26,17.06l20.81,7.77Z"/><path class="cls-2" d="M372,209.47a17.87,17.87,0,0,1-2.07,0l-16.82-.95-17.15-1c-33.51-1.9-45,26.57-45.92,29.11l26.49-88.24a49.66,49.66,0,0,1,90.14-14.8c15.43,24.35,6.7,55.94-17.77,70C388.93,203.62,380.34,209,372,209.47Z"/><path class="cls-3" d="M304.54,188.11c-.59.26-50.41,22.54-101.06-6.3-42.94-24.45-44-51.7-44.16-55.17l-5.42,82c-1.37,16.63,1.4,71.83,52.61,82.17,43.76,8.83,66.66-19.92,75.21-36.39,3.19-6.14,5.95-12.1,8.35-17.78Z"/><path class="cls-4" d="M159.3,126.37c-.4,0-5.15,61.33-4.93,75.12.08,4.62,4.95-74.77,4.95-74.77Z"/><path class="cls-5" d="M304.69,187.85c-2.5,11.83-6.74,27.57-14.83,49.29,0,0,.07-.38,1.27-4.42,4.4-14.7,13.23-44.09,13.23-44.09Z"/></g></g></svg>